<svg xmlns="http://www.w3.org/2000/svg" xmlns:svg="http://www.w3.org/2000/svg" id="svg2" width="64" height="64" version="1.1" viewBox="0 0 64 64"><metadata id="metadata7"/><g id="layer1" transform="translate(0,-988.36216)"><g id="text4148" fill="#000" fill-opacity="1" stroke="none" stroke-linecap="butt" stroke-linejoin="miter" stroke-opacity="1" stroke-width="1" font-family="Sans" font-size="91.429" font-style="normal" font-weight="normal" letter-spacing="0" word-spacing="0" style="line-height:125%"><path color="#000" style="isolation:auto;mix-blend-mode:normal;solid-color:#000;solid-opacity:1;marker:none" id="rect4429" fill="#933128" fill-opacity="1" fill-rule="nonzero" stroke="none" stroke-dasharray="none" stroke-dashoffset="0" stroke-linecap="butt" stroke-linejoin="miter" stroke-miterlimit="4" stroke-opacity="1" stroke-width="1" d="M 5.3027344 5.6640625 C 2.4626401 5.6640625 0.17773438 7.9509213 0.17773438 10.791016 L 0.17773438 47.470703 C 0.17773438 50.310797 2.4626401 52.597656 5.3027344 52.597656 L 58.867188 52.597656 C 61.707282 52.597656 63.994141 50.310797 63.994141 47.470703 L 63.994141 10.791016 C 63.994141 7.9509213 61.707282 5.6640625 58.867188 5.6640625 L 5.3027344 5.6640625 z M 15.011719 13.802734 L 23.90625 13.802734 L 23.90625 43.847656 L 15.011719 43.847656 L 15.011719 13.802734 z M 38.839844 13.802734 L 49.226562 13.802734 L 37.730469 27.923828 L 50.351562 43.847656 L 39.964844 43.847656 L 27.34375 27.923828 L 38.839844 13.802734 z" clip-rule="nonzero" color-interpolation="sRGB" color-interpolation-filters="linearRGB" color-rendering="auto" display="inline" enable-background="accumulate" image-rendering="auto" opacity="1" overflow="visible" shape-rendering="auto" text-rendering="auto" transform="translate(0,988.36216)" visibility="visible"/><path color-interpolation-filters="linearRGB" style="line-height:125%;isolation:auto;mix-blend-mode:normal;solid-color:#000;solid-opacity:1;marker:none" id="rect4431-9" fill="#933128" fill-opacity="1" fill-rule="nonzero" stroke="none" stroke-dasharray="none" stroke-dashoffset="0" stroke-linecap="butt" stroke-linejoin="miter" stroke-miterlimit="4" stroke-opacity="1" stroke-width="1" d="m 19.195079,1040.2125 16.379387,-0.1098 4.384784,12.2771 z" clip-rule="nonzero" color="#000" color-interpolation="sRGB" color-rendering="auto" display="inline" enable-background="accumulate" font-family="Sans" font-size="91.429" font-style="normal" font-weight="normal" image-rendering="auto" letter-spacing="0" opacity="1" overflow="visible" shape-rendering="auto" text-rendering="auto" visibility="visible" word-spacing="0"/></g></g></svg>